<?xml version="1.0" standalone="no"?>
<!DOCTYPE svg PUBLIC "-//W3C//DTD SVG 20010904//EN"
 "http://www.w3.org/TR/2001/REC-SVG-20010904/DTD/svg10.dtd">
<svg version="1.0" xmlns="http://www.w3.org/2000/svg"
 width="137.000000pt" height="137.000000pt" viewBox="0 0 137.000000 137.000000"
 preserveAspectRatio="xMidYMid meet">
<metadata>
Created by potrace 1.13, written by Peter Selinger 2001-2015
</metadata>
<g transform="translate(0.000000,137.000000) scale(0.100000,-0.100000)"
fill="#000000" stroke="none">
<path d="M556 1363 c-29 -5 -28 -5 21 -33 28 -16 64 -45 79 -64 16 -19 131
-212 257 -429 l227 -394 45 8 c126 23 180 99 178 249 -4 372 -316 675 -687
669 -50 -1 -104 -4 -120 -6z"/>
<path d="M350 1284 c-51 -26 -95 -59 -149 -113 -242 -242 -269 -623 -64 -896
l38 -50 6 75 c3 42 14 90 22 107 9 17 116 203 237 412 121 210 220 384 220
387 0 18 -58 76 -94 93 -66 33 -129 28 -216 -15z"/>
<path d="M1304 469 c-3 -6 -27 -21 -53 -33 -45 -20 -60 -21 -529 -24 l-483 -3
-15 -34 c-20 -49 -18 -128 6 -174 63 -125 326 -219 534 -190 134 18 243 64
346 147 91 73 186 206 215 300 7 23 -8 31 -21 11z"/>
</g>
</svg>
